<!-- <svg width="163" height="87" viewBox="0 0 163 87" fill="none" xmlns="http://www.w3.org/2000/svg">
<path d="M81.6894 35.5909H67.8377C67.671 35.5931 67.5054 35.5618 67.3509 35.4988C67.1964 35.4359 67.0561 35.3425 66.9382 35.2242C66.8202 35.106 66.7271 34.9652 66.6643 34.8103C66.6015 34.6554 66.5703 34.4894 66.5725 34.3222V20.4318C66.5725 16.4114 68.1652 12.5556 71.0001 9.71272C73.8351 6.86983 77.6802 5.27272 81.6894 5.27272V5.27272C83.6746 5.27272 85.6404 5.66482 87.4744 6.42664C89.3085 7.18845 90.975 8.30506 92.3787 9.71272C93.7825 11.1204 94.896 12.7915 95.6557 14.6307C96.4154 16.4699 96.8064 18.4411 96.8064 20.4318V20.4318C96.8064 22.4225 96.4154 24.3938 95.6557 26.2329C94.896 28.0721 93.7825 29.7433 92.3787 31.1509C90.975 32.5586 89.3085 33.6752 87.4744 34.437C85.6404 35.1988 83.6746 35.5909 81.6894 35.5909V35.5909Z" stroke="#00B37E" stroke-width="2" stroke-linecap="round" stroke-linejoin="round"/>
<path d="M76.4314 18.4545H86.2903" stroke="#996DFF" stroke-width="2" stroke-linecap="round" stroke-linejoin="round"/>
<path d="M76.4314 23.7273H86.2903" stroke="#996DFF" stroke-width="2" stroke-linecap="round" stroke-linejoin="round"/>
<path d="M3 55.4176H10.425C12.1092 55.4176 13.5315 55.6751 14.692 56.19C15.8627 56.7049 16.7511 57.467 17.357 58.4762C17.9732 59.4751 18.2812 60.7058 18.2812 62.1682C18.2812 63.198 18.0707 64.1403 17.6497 64.995C17.2389 65.8395 16.6432 66.5604 15.8627 67.1577C15.0925 67.7447 14.1683 68.1824 13.0899 68.4707L12.2581 68.7951H5.27986L5.24905 66.3699H10.5174C11.5854 66.3699 12.4738 66.1845 13.1824 65.8137C13.891 65.4327 14.425 64.9229 14.7844 64.2845C15.1439 63.646 15.3236 62.9405 15.3236 62.1682C15.3236 61.3031 15.1541 60.5462 14.8152 59.8974C14.4763 59.2486 13.9423 58.7491 13.2132 58.399C12.4943 58.0385 11.5649 57.8583 10.425 57.8583H5.97307V77.9091H3V55.4176ZM16.1092 77.9091L10.656 67.7138L13.7523 67.6983L19.2825 77.7237V77.9091H16.1092Z" fill="#996DFF"/>
<path d="M21.2543 69.7374V69.3821C21.2543 68.1772 21.4289 67.0598 21.7781 66.03C22.1272 64.9899 22.6304 64.0888 23.2877 63.3267C23.945 62.5543 24.7409 61.957 25.6754 61.5348C26.6099 61.1023 27.6574 60.886 28.8179 60.886C29.9887 60.886 31.0413 61.1023 31.9758 61.5348C32.9206 61.957 33.7217 62.5543 34.3789 63.3267C35.0465 64.0888 35.5548 64.9899 35.904 66.03C36.2531 67.0598 36.4277 68.1772 36.4277 69.3821V69.7374C36.4277 70.9423 36.2531 72.0597 35.904 73.0895C35.5548 74.1193 35.0465 75.0204 34.3789 75.7928C33.7217 76.5549 32.9258 77.1522 31.9912 77.5847C31.067 78.0069 30.0195 78.218 28.8487 78.218C27.678 78.218 26.6253 78.0069 25.6908 77.5847C24.7563 77.1522 23.9552 76.5549 23.2877 75.7928C22.6304 75.0204 22.1272 74.1193 21.7781 73.0895C21.4289 72.0597 21.2543 70.9423 21.2543 69.7374ZM24.1041 69.3821V69.7374C24.1041 70.5716 24.2017 71.3594 24.3968 72.1009C24.592 72.832 24.8846 73.4808 25.2749 74.0472C25.6754 74.6136 26.1735 75.0616 26.7691 75.3912C27.3648 75.7104 28.058 75.87 28.8487 75.87C29.6292 75.87 30.3122 75.7104 30.8975 75.3912C31.4932 75.0616 31.9861 74.6136 32.3764 74.0472C32.7666 73.4808 33.0593 72.832 33.2544 72.1009C33.4598 71.3594 33.5625 70.5716 33.5625 69.7374V69.3821C33.5625 68.5582 33.4598 67.7807 33.2544 67.0495C33.0593 66.3081 32.7615 65.6541 32.3609 65.0877C31.9707 64.511 31.4778 64.0579 30.8821 63.7283C30.2967 63.3988 29.6087 63.234 28.8179 63.234C28.0374 63.234 27.3494 63.3988 26.7537 63.7283C26.1683 64.0579 25.6754 64.511 25.2749 65.0877C24.8846 65.6541 24.592 66.3081 24.3968 67.0495C24.2017 67.7807 24.1041 68.5582 24.1041 69.3821Z" fill="#996DFF"/>
<path d="M46.6717 75.87C47.3495 75.87 47.976 75.731 48.5511 75.453C49.1262 75.1749 49.5986 74.7939 49.9683 74.3098C50.338 73.8155 50.5485 73.2543 50.5999 72.6261H53.3111C53.2597 73.6147 52.9259 74.5364 52.3098 75.3912C51.7038 76.2356 50.9079 76.9205 49.9221 77.4457C48.9362 77.9606 47.8527 78.218 46.6717 78.218C45.4188 78.218 44.3251 77.9966 43.3906 77.5538C42.4663 77.111 41.6961 76.5034 41.0799 75.731C40.474 74.9586 40.017 74.073 39.7089 73.074C39.4111 72.0648 39.2622 70.9989 39.2622 69.8764V69.2276C39.2622 68.1051 39.4111 67.0444 39.7089 66.0455C40.017 65.0362 40.474 64.1454 41.0799 63.3731C41.6961 62.6007 42.4663 61.9931 43.3906 61.5503C44.3251 61.1074 45.4188 60.886 46.6717 60.886C47.976 60.886 49.1159 61.1538 50.0915 61.6893C51.0671 62.2145 51.8322 62.9354 52.3868 63.8519C52.9516 64.7582 53.2597 65.788 53.3111 66.9414H50.5999C50.5485 66.2514 50.3534 65.6284 50.0145 65.0723C49.6859 64.5162 49.234 64.0733 48.6589 63.7438C48.0941 63.4039 47.4317 63.234 46.6717 63.234C45.7988 63.234 45.0645 63.4091 44.4689 63.7592C43.8835 64.0991 43.4162 64.5625 43.0671 65.1495C42.7282 65.7262 42.4817 66.3699 42.3277 67.0804C42.1839 67.7807 42.112 68.4965 42.112 69.2276V69.8764C42.112 70.6076 42.1839 71.3285 42.3277 72.0391C42.4714 72.7497 42.7128 73.3933 43.0517 73.97C43.4008 74.5467 43.8681 75.0101 44.4535 75.3603C45.0491 75.7001 45.7885 75.87 46.6717 75.87Z" fill="#996DFF"/>
<path d="M59.3804 54.1818V77.9091H56.5152V54.1818H59.3804ZM69.5628 61.195L62.2919 68.9959L58.2251 73.2285L57.994 70.1854L60.9055 66.6943L66.0814 61.195H69.5628ZM66.9594 77.9091L61.0133 69.9382L62.4921 67.3894L70.3176 77.9091H66.9594Z" fill="#996DFF"/>
<path d="M79.1136 78.218C77.9531 78.218 76.9005 78.0224 75.9556 77.631C75.0211 77.2294 74.2149 76.6682 73.5371 75.9473C72.8696 75.2264 72.3561 74.3716 71.9967 73.383C71.6373 72.3944 71.4575 71.313 71.4575 70.139V69.4902C71.4575 68.1309 71.6578 66.9208 72.0583 65.8601C72.4588 64.7891 73.0031 63.8828 73.6912 63.1413C74.3792 62.3999 75.1597 61.8386 76.0327 61.4576C76.9056 61.0765 77.8093 60.886 78.7439 60.886C79.9351 60.886 80.9621 61.092 81.8248 61.5039C82.6977 61.9158 83.4114 62.4925 83.966 63.234C84.5205 63.9652 84.9313 64.8303 85.1983 65.8292C85.4653 66.8178 85.5988 67.8992 85.5988 69.0732V70.3553H73.152V68.0227H82.749V67.8065C82.7079 67.065 82.5539 66.3441 82.2869 65.6438C82.0301 64.9435 81.6194 64.3668 81.0545 63.9137C80.4897 63.4606 79.7195 63.234 78.7439 63.234C78.0969 63.234 77.5012 63.3731 76.9569 63.6511C76.4126 63.9189 75.9454 64.3205 75.5551 64.856C75.1649 65.3915 74.8619 66.0455 74.6463 66.8178C74.4306 67.5902 74.3228 68.481 74.3228 69.4902V70.139C74.3228 70.932 74.4306 71.6786 74.6463 72.3789C74.8722 73.0689 75.1957 73.6765 75.6167 74.2017C76.0481 74.7269 76.5667 75.1389 77.1726 75.4375C77.7888 75.7362 78.4871 75.8855 79.2676 75.8855C80.274 75.8855 81.1264 75.6795 81.8248 75.2676C82.5231 74.8557 83.1341 74.3047 83.6579 73.6147L85.3832 74.9895C85.0238 75.5353 84.5667 76.0554 84.0122 76.5497C83.4576 77.044 82.7747 77.4457 81.9634 77.7546C81.1624 78.0636 80.2124 78.218 79.1136 78.218Z" fill="#996DFF"/>
<path d="M95.9044 61.195V63.3885H86.8928V61.195H95.9044ZM89.9429 57.1323H92.7927V73.7692C92.7927 74.3356 92.88 74.763 93.0546 75.0513C93.2292 75.3397 93.4551 75.5302 93.7324 75.6229C94.0097 75.7156 94.3075 75.7619 94.6259 75.7619C94.8621 75.7619 95.1086 75.7413 95.3653 75.7001C95.6323 75.6486 95.8326 75.6074 95.9661 75.5765L95.9815 77.9091C95.7555 77.9812 95.4577 78.0481 95.088 78.1099C94.7286 78.182 94.2921 78.218 93.7786 78.218C93.0803 78.218 92.4384 78.079 91.8531 77.801C91.2677 77.5229 90.8004 77.0595 90.4513 76.4107C90.1124 75.7516 89.9429 74.866 89.9429 73.7537V57.1323Z" fill="#996DFF"/>
<path d="M114.924 65.0877V67.513H102.785V65.0877H114.924ZM103.247 55.4176V77.9091H100.274V55.4176H103.247ZM117.512 55.4176V77.9091H114.554V55.4176H117.512Z" fill="#00B37E"/>
<path d="M129.281 78.218C128.12 78.218 127.068 78.0224 126.123 77.631C125.188 77.2294 124.382 76.6682 123.704 75.9473C123.037 75.2264 122.523 74.3716 122.164 73.383C121.805 72.3944 121.625 71.313 121.625 70.139V69.4902C121.625 68.1309 121.825 66.9208 122.226 65.8601C122.626 64.7891 123.17 63.8828 123.858 63.1413C124.547 62.3999 125.327 61.8386 126.2 61.4576C127.073 61.0765 127.977 60.886 128.911 60.886C130.102 60.886 131.129 61.092 131.992 61.5039C132.865 61.9158 133.579 62.4925 134.133 63.234C134.688 63.9652 135.099 64.8303 135.366 65.8292C135.633 66.8178 135.766 67.8992 135.766 69.0732V70.3553H123.319V68.0227H132.916V67.8065C132.875 67.065 132.721 66.3441 132.454 65.6438C132.197 64.9435 131.787 64.3668 131.222 63.9137C130.657 63.4606 129.887 63.234 128.911 63.234C128.264 63.234 127.668 63.3731 127.124 63.6511C126.58 63.9189 126.113 64.3205 125.722 64.856C125.332 65.3915 125.029 66.0455 124.814 66.8178C124.598 67.5902 124.49 68.481 124.49 69.4902V70.139C124.49 70.932 124.598 71.6786 124.814 72.3789C125.039 73.0689 125.363 73.6765 125.784 74.2017C126.215 74.7269 126.734 75.1389 127.34 75.4375C127.956 75.7362 128.654 75.8855 129.435 75.8855C130.441 75.8855 131.294 75.6795 131.992 75.2676C132.69 74.8557 133.301 74.3047 133.825 73.6147L135.55 74.9895C135.191 75.5353 134.734 76.0554 134.179 76.5497C133.625 77.044 132.942 77.4457 132.131 77.7546C131.33 78.0636 130.38 78.218 129.281 78.218Z" fill="#00B37E"/>
<path d="M142.19 54.1818V77.9091H139.325V54.1818H142.19Z" fill="#00B37E"/>
<path d="M149.615 64.408V84.3352H146.75V61.195H149.368L149.615 64.408ZM160.845 69.413V69.7374C160.845 70.9526 160.701 72.0803 160.413 73.1204C160.126 74.1502 159.705 75.0462 159.15 75.8082C158.606 76.5703 157.933 77.1625 157.132 77.5847C156.331 78.0069 155.412 78.218 154.375 78.218C153.317 78.218 152.382 78.043 151.571 77.6928C150.76 77.3427 150.072 76.8329 149.507 76.1635C148.942 75.4941 148.49 74.6909 148.151 73.7537C147.823 72.8166 147.597 71.761 147.474 70.587V68.8569C147.597 67.6211 147.828 66.514 148.167 65.5357C148.506 64.5574 148.952 63.7232 149.507 63.0332C150.072 62.3329 150.755 61.8026 151.556 61.4421C152.357 61.0714 153.281 60.886 154.329 60.886C155.376 60.886 156.305 61.092 157.117 61.5039C157.928 61.9055 158.611 62.4823 159.166 63.234C159.72 63.9858 160.136 64.8869 160.413 65.9373C160.701 66.9775 160.845 68.136 160.845 69.413ZM157.979 69.7374V69.413C157.979 68.5788 157.892 67.7962 157.717 67.065C157.543 66.3235 157.271 65.6747 156.901 65.1186C156.542 64.5522 156.079 64.1094 155.515 63.7901C154.95 63.4606 154.277 63.2958 153.497 63.2958C152.778 63.2958 152.151 63.4194 151.617 63.6666C151.094 63.9137 150.647 64.2484 150.277 64.6706C149.907 65.0826 149.604 65.5563 149.368 66.0918C149.142 66.617 148.973 67.1628 148.86 67.7292V71.7301C149.065 72.451 149.353 73.1307 149.723 73.7692C150.092 74.3974 150.585 74.9071 151.201 75.2985C151.818 75.6795 152.593 75.87 153.527 75.87C154.298 75.87 154.96 75.7104 155.515 75.3912C156.079 75.0616 156.542 74.6136 156.901 74.0472C157.271 73.4808 157.543 72.832 157.717 72.1009C157.892 71.3594 157.979 70.5716 157.979 69.7374Z" fill="#00B37E"/>
</svg> -->

<svg width="143" height="132" viewBox="0 0 143 132" fill="none" xmlns="http://www.w3.org/2000/svg">
<path d="M24.1564 64H20.7564C20.1964 64 19.9164 63.72 19.9164 63.16V39.12C19.9164 38.56 20.1964 38.28 20.7564 38.28H24.1564C24.7164 38.28 24.9964 38.56 24.9964 39.12V48.52C24.9964 48.8133 25.1564 48.96 25.4764 48.96H32.2364C32.5297 48.96 32.6764 48.8133 32.6764 48.52V39.12C32.6764 38.56 32.9564 38.28 33.5164 38.28H36.9164C37.4764 38.28 37.7564 38.56 37.7564 39.12V63.16C37.7564 63.72 37.4764 64 36.9164 64H33.5164C32.9564 64 32.6764 63.72 32.6764 63.16V53.8C32.6764 53.5067 32.5297 53.36 32.2364 53.36H25.4764C25.1564 53.36 24.9964 53.5067 24.9964 53.8V63.16C24.9964 63.72 24.7164 64 24.1564 64ZM56.8833 64H43.8033C43.2433 64 42.9633 63.72 42.9633 63.16V39.12C42.9633 38.56 43.2433 38.28 43.8033 38.28H56.8833C57.4166 38.28 57.6833 38.56 57.6833 39.12V41.84C57.6833 42.4 57.4166 42.68 56.8833 42.68H48.5233C48.2033 42.68 48.0433 42.8267 48.0433 43.12V48.32C48.0433 48.6133 48.2033 48.76 48.5233 48.76H55.3633C55.9233 48.76 56.2033 49.04 56.2033 49.6V52.32C56.2033 52.88 55.9233 53.16 55.3633 53.16H48.5233C48.2033 53.16 48.0433 53.3067 48.0433 53.6V59.16C48.0433 59.4533 48.2033 59.6 48.5233 59.6H56.8833C57.4166 59.6 57.6833 59.88 57.6833 60.44V63.16C57.6833 63.72 57.4166 64 56.8833 64ZM76.1039 64H62.9439C62.3839 64 62.1039 63.72 62.1039 63.16V39.12C62.1039 38.56 62.3839 38.28 62.9439 38.28H66.3439C66.9039 38.28 67.1839 38.56 67.1839 39.12V59.12C67.1839 59.4133 67.3439 59.56 67.6639 59.56H76.1039C76.6372 59.56 76.9039 59.8533 76.9039 60.44V63.16C76.9039 63.72 76.6372 64 76.1039 64ZM84.3127 64H80.9127C80.3527 64 80.0727 63.72 80.0727 63.16V39.12C80.0727 38.56 80.3527 38.28 80.9127 38.28H90.6727C92.7527 38.28 94.366 38.8533 95.5127 40C96.6593 41.12 97.2327 42.72 97.2327 44.8V48.64C97.2327 50.72 96.6593 52.3333 95.5127 53.48C94.366 54.6 92.7527 55.16 90.6727 55.16H85.6327C85.3127 55.16 85.1527 55.3067 85.1527 55.6V63.16C85.1527 63.72 84.8727 64 84.3127 64ZM85.5927 50.72H89.8327C90.686 50.72 91.286 50.5467 91.6327 50.2C91.9793 49.8267 92.1527 49.2267 92.1527 48.4V45.04C92.1527 44.1867 91.9793 43.5867 91.6327 43.24C91.286 42.8667 90.686 42.68 89.8327 42.68H85.5927C85.2993 42.68 85.1527 42.8267 85.1527 43.12V50.28C85.1527 50.5733 85.2993 50.72 85.5927 50.72Z" fill="white"/>
<path d="M102.782 67H101.502C100.636 67 99.949 66.7467 99.4423 66.24C98.949 65.7333 98.7023 65.04 98.7023 64.16V59.64C98.7023 58.76 98.949 58.0667 99.4423 57.56C99.949 57.0533 100.636 56.8 101.502 56.8H105.742C105.876 56.8 105.942 56.88 105.942 57.04V66.76C105.942 66.92 105.876 67 105.742 67H105.162C105.016 67 104.942 66.92 104.942 66.76V65.96H104.862C104.516 66.6533 103.822 67 102.782 67ZM104.942 64.14V57.88C104.942 57.76 104.876 57.7 104.742 57.7H101.582C100.969 57.7 100.502 57.8733 100.182 58.22C99.8623 58.5667 99.7023 59.0533 99.7023 59.68V64.12C99.7023 64.7467 99.8623 65.2333 100.182 65.58C100.502 65.9267 100.969 66.1 101.582 66.1H102.882C103.522 66.1 104.022 65.9333 104.382 65.6C104.756 65.2533 104.942 64.7667 104.942 64.14ZM109.721 69.98H109.141C109.008 69.98 108.941 69.9067 108.941 69.76V57.04C108.941 56.88 109.008 56.8 109.141 56.8H109.721C109.868 56.8 109.941 56.88 109.941 57.04V57.84H110.021C110.395 57.1467 111.088 56.8 112.101 56.8H113.461C114.315 56.8 114.988 57.0533 115.481 57.56C115.975 58.0667 116.221 58.76 116.221 59.64V64.16C116.221 65.04 115.975 65.7333 115.481 66.24C114.988 66.7467 114.315 67 113.461 67H112.101C111.088 67 110.395 66.6533 110.021 65.96H109.941V69.76C109.941 69.9067 109.868 69.98 109.721 69.98ZM112.001 66.1H113.321C113.935 66.1 114.401 65.9333 114.721 65.6C115.055 65.2533 115.221 64.76 115.221 64.12V59.68C115.221 59.04 115.055 58.5533 114.721 58.22C114.401 57.8733 113.935 57.7 113.321 57.7H112.001C111.361 57.7 110.855 57.8733 110.481 58.22C110.121 58.5533 109.941 59.0333 109.941 59.66V64.14C109.941 64.7667 110.121 65.2533 110.481 65.6C110.855 65.9333 111.361 66.1 112.001 66.1ZM119.8 69.98H119.22C119.086 69.98 119.02 69.9067 119.02 69.76V57.04C119.02 56.88 119.086 56.8 119.22 56.8H119.8C119.946 56.8 120.02 56.88 120.02 57.04V57.84H120.1C120.473 57.1467 121.166 56.8 122.18 56.8H123.54C124.393 56.8 125.066 57.0533 125.56 57.56C126.053 58.0667 126.3 58.76 126.3 59.64V64.16C126.3 65.04 126.053 65.7333 125.56 66.24C125.066 66.7467 124.393 67 123.54 67H122.18C121.166 67 120.473 66.6533 120.1 65.96H120.02V69.76C120.02 69.9067 119.946 69.98 119.8 69.98ZM122.08 66.1H123.4C124.013 66.1 124.48 65.9333 124.8 65.6C125.133 65.2533 125.3 64.76 125.3 64.12V59.68C125.3 59.04 125.133 58.5533 124.8 58.22C124.48 57.8733 124.013 57.7 123.4 57.7H122.08C121.44 57.7 120.933 57.8733 120.56 58.22C120.2 58.5533 120.02 59.0333 120.02 59.66V64.14C120.02 64.7667 120.2 65.2533 120.56 65.6C120.933 65.9333 121.44 66.1 122.08 66.1Z" fill="#08B2B2"/>
<path d="M127.085 0H15.9145C7.15 0 0 8.06129 0 17.9429V97.5156C0 107.137 7.15 115.198 15.9145 115.198H105.635L125.24 126.12L134.927 131.581V119.359V112.858C139.771 109.738 143 104.017 143 97.5156V17.9429C143 8.06129 135.85 0 127.085 0ZM136.311 97.2556C136.311 102.456 132.852 106.877 128.239 107.397V119.359L107.25 107.657H15.9145C10.8403 107.657 6.91935 102.976 6.91935 97.5156V17.9429C6.91935 12.222 11.071 7.80125 15.9145 7.80125H127.316C132.39 7.80125 136.311 12.482 136.311 17.9429V97.2556Z" fill="#08B2B2"/>
<path d="M43.3823 88.8816C45.8025 88.8816 47.7645 86.6695 47.7645 83.9408C47.7645 81.2121 45.8025 79 43.3823 79C40.962 79 39 81.2121 39 83.9408C39 86.6695 40.962 88.8816 43.3823 88.8816Z" fill="#08B2B2"/>
<path d="M70.8288 88.8816C73.249 88.8816 75.2111 86.6695 75.2111 83.9408C75.2111 81.2121 73.249 79 70.8288 79C68.4085 79 66.4465 81.2121 66.4465 83.9408C66.4465 86.6695 68.4085 88.8816 70.8288 88.8816Z" fill="#08B2B2"/>
<path d="M98.2759 88.8816C100.696 88.8816 102.658 86.6695 102.658 83.9408C102.658 81.2121 100.696 79 98.2759 79C95.8557 79 93.8937 81.2121 93.8937 83.9408C93.8937 86.6695 95.8557 88.8816 98.2759 88.8816Z" fill="#08B2B2"/>
</svg>

